<svg width="17" height="10" viewBox="0 0 17 10" fill="none" xmlns="http://www.w3.org/2000/svg">
<path d="M11.3333 8.33333L6.93222 8.33333L3.61722 5.41667L1.88889 5.41667L1.88889 4.58333L3.61722 4.58333L6.94167 1.66667L11.3333 1.66667L11.3333 8.33333ZM17 8.33333L17 6.66667L13.2222 6.66667L13.2222 3.33333L17 3.33333L17 1.66667L13.2222 1.66667L13.2222 1.65833C13.2317 0.75 12.3817 -2.01874e-07 11.3522 -2.46872e-07L6.13889 -4.74754e-07L2.83333 2.91667L-1.27492e-07 2.91667L-3.09622e-07 7.08333L2.83333 7.08333L6.14833 10L11.3333 10C12.3722 10 13.2222 9.25 13.2222 8.33333L17 8.33333Z" fill="#E31937"/>
</svg>
