<svg width="21" height="17" viewBox="0 0 21 17" fill="none" xmlns="http://www.w3.org/2000/svg">
<path d="M18.9 0H2.1C1.54305 0 1.0089 0.223883 0.615076 0.622398C0.221249 1.02091 0 1.56141 0 2.125V14.875C0 15.4386 0.221249 15.9791 0.615076 16.3776C1.0089 16.7761 1.54305 17 2.1 17H18.9C19.457 17 19.9911 16.7761 20.3849 16.3776C20.7787 15.9791 21 15.4386 21 14.875V2.125C21 1.56141 20.7787 1.02091 20.3849 0.622398C19.9911 0.223883 19.457 0 18.9 0ZM18.9 7.4375H2.1V4.25H18.9V7.4375Z" fill="#E31937"/>
</svg>
