<svg width="21" height="22" viewBox="0 0 21 22" fill="none" xmlns="http://www.w3.org/2000/svg">
<path d="M13.5379 9.71064C16.2455 9.71064 18.4116 11.8686 18.4116 14.566C18.4116 15.5154 18.1408 16.411 17.6643 17.1555L21 20.5002L19.4946 22L16.1155 18.6876C15.3682 19.1515 14.4801 19.4213 13.5379 19.4213C10.8303 19.4213 8.66426 17.2634 8.66426 14.566C8.66426 11.8686 10.8303 9.71064 13.5379 9.71064ZM13.5379 11.8686C12.8198 11.8686 12.1311 12.1528 11.6234 12.6586C11.1156 13.1645 10.8303 13.8506 10.8303 14.566C10.8303 15.2814 11.1156 15.9675 11.6234 16.4733C12.1311 16.9792 12.8198 17.2634 13.5379 17.2634C14.256 17.2634 14.9447 16.9792 15.4525 16.4733C15.9602 15.9675 16.2455 15.2814 16.2455 14.566C16.2455 13.8506 15.9602 13.1645 15.4525 12.6586C14.9447 12.1528 14.256 11.8686 13.5379 11.8686ZM2.16606 0H17.3285C18.5307 0 19.4946 0.960275 19.4946 2.15792V10.822C18.9531 9.9588 18.2058 9.21432 17.3285 8.63168V2.15792H2.16606V17.2634H7.03971C7.37545 18.0726 7.86282 18.7955 8.45848 19.4213H2.16606C0.963899 19.4213 0 18.461 0 17.2634V2.15792C0 0.960275 0.963899 0 2.16606 0ZM4.33213 4.31584H15.1625V6.47376H4.33213V4.31584ZM4.33213 8.63168H9.77978C8.91336 9.17116 8.16607 9.91565 7.58123 10.7896H4.33213V8.63168ZM4.33213 12.9475H6.68231C6.56318 13.487 6.49819 14.0265 6.49819 14.566V15.1054H4.33213V12.9475Z" fill="#E31937"/>
</svg>
