<svg width="25" height="17" viewBox="0 0 25 17" fill="none" xmlns="http://www.w3.org/2000/svg">
<path d="M19.3182 15.4062C18.8661 15.4062 18.4326 15.2383 18.1129 14.9395C17.7932 14.6406 17.6136 14.2352 17.6136 13.8125C17.6136 13.3898 17.7932 12.9844 18.1129 12.6855C18.4326 12.3867 18.8661 12.2188 19.3182 12.2188C19.7703 12.2188 20.2038 12.3867 20.5235 12.6855C20.8431 12.9844 21.0227 13.3898 21.0227 13.8125C21.0227 14.2352 20.8431 14.6406 20.5235 14.9395C20.2038 15.2383 19.7703 15.4062 19.3182 15.4062ZM21.0227 5.84375L23.25 8.5H18.1818V5.84375M5.68182 15.4062C5.22974 15.4062 4.79619 15.2383 4.47652 14.9395C4.15686 14.6406 3.97727 14.2352 3.97727 13.8125C3.97727 13.3898 4.15686 12.9844 4.47652 12.6855C4.79619 12.3867 5.22974 12.2188 5.68182 12.2188C6.13389 12.2188 6.56745 12.3867 6.88711 12.6855C7.20678 12.9844 7.38636 13.3898 7.38636 13.8125C7.38636 14.2352 7.20678 14.6406 6.88711 14.9395C6.56745 15.2383 6.13389 15.4062 5.68182 15.4062ZM21.5909 4.25H18.1818V0H2.27273C1.01136 0 0 0.945625 0 2.125V13.8125H2.27273C2.27273 14.6579 2.6319 15.4686 3.27123 16.0664C3.91056 16.6642 4.77767 17 5.68182 17C6.58597 17 7.45308 16.6642 8.09241 16.0664C8.73174 15.4686 9.09091 14.6579 9.09091 13.8125H15.9091C15.9091 14.6579 16.2683 15.4686 16.9076 16.0664C17.5469 16.6642 18.414 17 19.3182 17C20.2223 17 21.0894 16.6642 21.7288 16.0664C22.3681 15.4686 22.7273 14.6579 22.7273 13.8125H25V8.5L21.5909 4.25Z" fill="#E31937"/>
</svg>
