<svg width="21" height="21" viewBox="0 0 21 21" fill="none" xmlns="http://www.w3.org/2000/svg">
<path d="M6.28883 0H14.9912C18.3064 0 21 2.6936 21 6.0088V14.7112C21 16.3048 20.367 17.8332 19.2401 18.9601C18.1132 20.0869 16.5849 20.72 14.9912 20.72H6.28883C2.97363 20.72 0.280029 18.0264 0.280029 14.7112V6.0088C0.280029 4.41517 0.913098 2.88681 2.03997 1.75994C3.16683 0.633068 4.6952 0 6.28883 0ZM6.08163 2.072C5.09248 2.072 4.14384 2.46494 3.4444 3.16437C2.74497 3.86381 2.35203 4.81245 2.35203 5.8016V14.9184C2.35203 16.98 4.01999 18.648 6.08163 18.648H15.1984C16.1876 18.648 17.1362 18.2551 17.8357 17.5556C18.5351 16.8562 18.928 15.9076 18.928 14.9184V5.8016C18.928 3.73996 17.2601 2.072 15.1984 2.072H6.08163ZM16.079 3.626C16.4225 3.626 16.7519 3.76244 16.9947 4.0053C17.2376 4.24816 17.374 4.57754 17.374 4.921C17.374 5.26446 17.2376 5.59384 16.9947 5.8367C16.7519 6.07956 16.4225 6.216 16.079 6.216C15.7356 6.216 15.4062 6.07956 15.1633 5.8367C14.9205 5.59384 14.784 5.26446 14.784 4.921C14.784 4.57754 14.9205 4.24816 15.1633 4.0053C15.4062 3.76244 15.7356 3.626 16.079 3.626ZM10.64 5.18C12.0139 5.18 13.3314 5.72575 14.3028 6.69719C15.2743 7.66863 15.82 8.98618 15.82 10.36C15.82 11.7338 15.2743 13.0514 14.3028 14.0228C13.3314 14.9943 12.0139 15.54 10.64 15.54C9.26621 15.54 7.94865 14.9943 6.97722 14.0228C6.00578 13.0514 5.46003 11.7338 5.46003 10.36C5.46003 8.98618 6.00578 7.66863 6.97722 6.69719C7.94865 5.72575 9.26621 5.18 10.64 5.18ZM10.64 7.252C9.81574 7.252 9.0252 7.57945 8.44234 8.16231C7.85948 8.74518 7.53203 9.53571 7.53203 10.36C7.53203 11.1843 7.85948 11.9748 8.44234 12.5577C9.0252 13.1406 9.81574 13.468 10.64 13.468C11.4643 13.468 12.2549 13.1406 12.8377 12.5577C13.4206 11.9748 13.748 11.1843 13.748 10.36C13.748 9.53571 13.4206 8.74518 12.8377 8.16231C12.2549 7.57945 11.4643 7.252 10.64 7.252Z" fill="white"/>
</svg>
