<svg width="14" height="14" viewBox="0 0 14 14" fill="none" xmlns="http://www.w3.org/2000/svg">
<path d="M7.17949 3.08824H1.4359C1.05507 3.08824 0.689848 3.25092 0.420565 3.5405C0.151282 3.83008 0 4.22283 0 4.63235V7.72059C0 8.13011 0.151282 8.52287 0.420565 8.81244C0.689848 9.10202 1.05507 9.26471 1.4359 9.26471H2.15385V12.3529C2.15385 12.5577 2.22949 12.7541 2.36413 12.8989C2.49877 13.0437 2.68138 13.125 2.87179 13.125H4.30769C4.4981 13.125 4.68072 13.0437 4.81536 12.8989C4.95 12.7541 5.02564 12.5577 5.02564 12.3529V9.26471H7.17949L10.7692 12.3529V0L7.17949 3.08824ZM14 6.17647C14 7.49669 13.3108 8.69338 12.2051 9.26471V3.08824C13.3036 3.66728 14 4.86397 14 6.17647Z" fill="white"/>
</svg>
