<svg width="12" height="12" viewBox="0 0 12 12" fill="none" xmlns="http://www.w3.org/2000/svg">
<path d="M8 4H1.33333V1.33333H8M6 10.6667C5.46957 10.6667 4.96086 10.456 4.58579 10.0809C4.21071 9.70581 4 9.1971 4 8.66667C4 8.13623 4.21071 7.62753 4.58579 7.25245C4.96086 6.87738 5.46957 6.66667 6 6.66667C6.53043 6.66667 7.03914 6.87738 7.41421 7.25245C7.78929 7.62753 8 8.13623 8 8.66667C8 9.1971 7.78929 9.70581 7.41421 10.0809C7.03914 10.456 6.53043 10.6667 6 10.6667ZM9.33333 0H1.33333C0.593333 0 0 0.6 0 1.33333V10.6667C0 11.0203 0.140476 11.3594 0.390524 11.6095C0.640573 11.8595 0.979711 12 1.33333 12H10.6667C11.0203 12 11.3594 11.8595 11.6095 11.6095C11.8595 11.3594 12 11.0203 12 10.6667V2.66667L9.33333 0Z" fill="#0CABC7"/>
</svg>
