<svg width="18" height="17" viewBox="0 0 18 17" fill="none" xmlns="http://www.w3.org/2000/svg">
<path d="M8.39108 5.95H10.1061V4.25H8.39108M9.24858 15.3C5.46701 15.3 2.38858 12.2485 2.38858 8.5C2.38858 4.7515 5.46701 1.7 9.24858 1.7C13.0302 1.7 16.1086 4.7515 16.1086 8.5C16.1086 12.2485 13.0302 15.3 9.24858 15.3ZM9.24858 0C8.1225 0 7.00744 0.219859 5.96707 0.647024C4.92671 1.07419 3.98141 1.70029 3.18514 2.48959C1.57702 4.08365 0.673584 6.24566 0.673584 8.5C0.673584 10.7543 1.57702 12.9163 3.18514 14.5104C3.98141 15.2997 4.92671 15.9258 5.96707 16.353C7.00744 16.7801 8.1225 17 9.24858 17C11.5228 17 13.7039 16.1045 15.312 14.5104C16.9201 12.9163 17.8236 10.7543 17.8236 8.5C17.8236 7.38376 17.6018 6.27846 17.1709 5.24719C16.7399 4.21592 16.1083 3.27889 15.312 2.48959C14.5158 1.70029 13.5705 1.07419 12.5301 0.647024C11.4897 0.219859 10.3747 0 9.24858 0ZM8.39108 12.75H10.1061V7.65H8.39108V12.75Z" fill="#848484"/>
</svg>
