<svg width="21" height="20" viewBox="0 0 21 20" fill="none" xmlns="http://www.w3.org/2000/svg">
<path d="M7.84459 0C9.81477 0 11.7043 0.782651 13.0974 2.17578C14.4905 3.56891 15.2732 5.45839 15.2732 7.42857C15.2732 9.26857 14.5989 10.96 13.4903 12.2629L13.7989 12.5714H14.7017L20.416 18.2857L18.7017 20L12.9874 14.2857V13.3829L12.6789 13.0743C11.376 14.1829 9.68459 14.8571 7.84459 14.8571C5.87441 14.8571 3.98492 14.0745 2.59179 12.6814C1.19867 11.2882 0.416016 9.39875 0.416016 7.42857C0.416016 5.45839 1.19867 3.56891 2.59179 2.17578C3.98492 0.782651 5.87441 0 7.84459 0ZM7.84459 2.28571C4.98744 2.28571 2.70173 4.57143 2.70173 7.42857C2.70173 10.2857 4.98744 12.5714 7.84459 12.5714C10.7017 12.5714 12.9874 10.2857 12.9874 7.42857C12.9874 4.57143 10.7017 2.28571 7.84459 2.28571Z" fill="#4C4D4F"/>
</svg>
