<svg width="22" height="21" viewBox="0 0 22 21" fill="none" xmlns="http://www.w3.org/2000/svg">
<path d="M10.6799 0C4.98194 0 0.319946 4.67032 0.319946 10.4224C0.319946 15.6232 4.1117 19.9399 9.06378 20.72V13.4389H6.43234V10.4224H9.06378V8.12366C9.06378 5.51285 10.6074 4.07743 12.9799 4.07743C14.1091 4.07743 15.2901 4.27506 15.2901 4.27506V6.84426H13.9848C12.7001 6.84426 12.2961 7.64518 12.2961 8.46691V10.4224H15.1762L14.71 13.4389H12.2961V20.72C14.7374 20.3329 16.9604 19.0823 18.5638 17.1939C20.1672 15.3056 21.0455 12.9039 21.0399 10.4224C21.0399 4.67032 16.3779 0 10.6799 0Z" fill="white"/>
</svg>
