<svg width="14" height="12" viewBox="0 0 14 12" fill="none" xmlns="http://www.w3.org/2000/svg">
<path d="M12.8645 3.40711L12.0021 4.79791C12.418 5.68732 12.6216 6.67348 12.5947 7.66801C12.5678 8.66253 12.3112 9.63437 11.8479 10.4964H2.13003C1.52787 9.37634 1.27835 8.07803 1.41847 6.79394C1.55859 5.50986 2.08089 4.30836 2.90794 3.36758C3.73498 2.4268 4.82275 1.79682 6.00997 1.57102C7.1972 1.34523 8.42068 1.53564 9.49904 2.11404L10.7962 1.18935C9.47554 0.281356 7.90908 -0.125518 6.34733 0.0338089C4.78558 0.193135 3.31878 0.909456 2.18156 2.06819C1.04434 3.22693 0.302408 4.76112 0.0744355 6.42538C-0.153537 8.08963 0.145625 9.78778 0.924068 11.2482C1.04642 11.4755 1.22212 11.6644 1.43368 11.7963C1.64524 11.9282 1.88532 11.9984 2.13003 12H11.8409C12.088 12.001 12.3309 11.9321 12.5452 11.8C12.7594 11.668 12.9373 11.4777 13.0608 11.2482C13.7069 10.0483 14.0311 8.68032 13.9977 7.29529C13.9642 5.91027 13.5745 4.56209 12.8715 3.39959L12.8645 3.40711ZM6.00034 8.5493C6.13057 8.6891 6.28523 8.8 6.45546 8.87567C6.6257 8.95133 6.80817 8.99028 6.99246 8.99028C7.17674 8.99028 7.35921 8.95133 7.52945 8.87567C7.69968 8.8 7.85434 8.6891 7.98457 8.5493L11.953 2.16667L6.00034 6.42176C5.86996 6.5614 5.76653 6.72722 5.69596 6.90975C5.62539 7.09228 5.58907 7.28794 5.58907 7.48553C5.58907 7.68312 5.62539 7.87878 5.69596 8.06131C5.76653 8.24384 5.86996 8.40966 6.00034 8.5493Z" fill="#E31937"/>
</svg>
