<svg width="18" height="18" viewBox="0 0 18 18" fill="none" xmlns="http://www.w3.org/2000/svg">
<path d="M16 0H2C0.9 0 0 0.9 0 2V16C0 17.1 0.9 18 2 18H16C17.1 18 18 17.1 18 16V2C18 0.9 17.1 0 16 0ZM6 10.5C6 11.6 5.1 12 4 12C2.9 12 2 11.6 2 10.5V9H3.5V10.5H4.5V6H6V10.5ZM11 8.5C11 9.3 10.3 10 9.5 10H8.5V12H7V6H9.5C10.3 6 11 6.7 11 7.5V8.5ZM16 7.5H13.5V10.5H14.5V9H16V10.7C16 11.4 15.5 12 14.7 12H13.4C12.6 12 12.1 11.3 12.1 10.7V7.4C12 6.7 12.5 6 13.3 6H14.6C15.4 6 15.9 6.7 15.9 7.3V7.5M8.5 7.5H9.5V8.5H8.5V7.5Z" fill="#4DBC7D"/>
</svg>
