<svg width="13" height="14" viewBox="0 0 13 14" fill="none" xmlns="http://www.w3.org/2000/svg">
<path d="M8.66667 6.63158V2.21053L6.5 0L4.33333 2.21053V3.68421H0V14H13V6.63158H8.66667ZM2.88889 12.5263H1.44444V11.0526H2.88889V12.5263ZM2.88889 9.57895H1.44444V8.10526H2.88889V9.57895ZM2.88889 6.63158H1.44444V5.15789H2.88889V6.63158ZM7.22222 12.5263H5.77778V11.0526H7.22222V12.5263ZM7.22222 9.57895H5.77778V8.10526H7.22222V9.57895ZM7.22222 6.63158H5.77778V5.15789H7.22222V6.63158ZM7.22222 3.68421H5.77778V2.21053H7.22222V3.68421ZM11.5556 12.5263H10.1111V11.0526H11.5556V12.5263ZM11.5556 9.57895H10.1111V8.10526H11.5556V9.57895Z" fill="#C1C1C1"/>
</svg>
