<svg width="22" height="16" viewBox="0 0 22 16" fill="none" xmlns="http://www.w3.org/2000/svg">
<path d="M9.24796 11.0114L14.6248 7.83994L9.24796 4.66851V11.0114ZM21.2241 2.73394C21.3588 3.2308 21.452 3.8968 21.5142 4.74251C21.5867 5.58823 21.6178 6.31766 21.6178 6.95194L21.68 7.83994C21.68 10.1551 21.5142 11.8571 21.2241 12.9459C20.9651 13.8974 20.3642 14.5105 19.4318 14.7748C18.9449 14.9122 18.054 15.0074 16.6864 15.0708C15.3396 15.1448 14.1068 15.1765 12.9672 15.1765L11.32 15.2399C6.97912 15.2399 4.27516 15.0708 3.20808 14.7748C2.27568 14.5105 1.6748 13.8974 1.4158 12.9459C1.28112 12.4491 1.18788 11.7831 1.12572 10.9374C1.0532 10.0917 1.02212 9.36223 1.02212 8.72794L0.959961 7.83994C0.959961 5.5248 1.12572 3.8228 1.4158 2.73394C1.6748 1.78251 2.27568 1.16937 3.20808 0.905084C3.695 0.767656 4.58596 0.672513 5.95348 0.609084C7.30028 0.535084 8.53312 0.50337 9.67272 0.50337L11.32 0.439941C15.6608 0.439941 18.3648 0.609084 19.4318 0.905084C20.3642 1.16937 20.9651 1.78251 21.2241 2.73394Z" fill="white"/>
</svg>
