<svg width="19" height="25" viewBox="0 0 19 25" fill="none" xmlns="http://www.w3.org/2000/svg">
<path d="M6.69784 5.55556C6.69784 5.1872 6.84186 4.83393 7.0982 4.57346C7.35454 4.313 7.70222 4.16667 8.06475 4.16667C8.42727 4.16667 8.77495 4.313 9.0313 4.57346C9.28764 4.83393 9.43165 5.1872 9.43165 5.55556V11.7639L11.0856 11.9444L17.8381 14.9861C18.5626 15.3194 19 16.0556 19 16.8611V22.9167C18.959 24.0556 18.0705 24.9583 16.9496 25H8.06475C7.54532 25 7.05324 24.7917 6.69784 24.4028L0 18.5694L1.01151 17.5C1.27122 17.2083 1.64029 17.0556 2.02302 17.0556H2.32374L6.69784 19.4444V5.55556ZM8.06475 0C9.51485 0 10.9056 0.585316 11.9309 1.62718C12.9563 2.66905 13.5324 4.08213 13.5324 5.55556C13.5324 7.63889 12.4388 9.40278 10.7986 10.3611V8.66667C11.6324 7.90278 12.1655 6.79167 12.1655 5.55556C12.1655 4.45049 11.7334 3.39068 10.9644 2.60928C10.1954 1.82788 9.15233 1.38889 8.06475 1.38889C6.97717 1.38889 5.93414 1.82788 5.1651 2.60928C4.39607 3.39068 3.96403 4.45049 3.96403 5.55556C3.96403 6.79167 4.49712 7.90278 5.33094 8.66667V10.3611C3.69065 9.40278 2.59712 7.63889 2.59712 5.55556C2.59712 4.08213 3.17317 2.66905 4.19855 1.62718C5.22393 0.585316 6.61464 0 8.06475 0Z" fill="#0CABC7"/>
</svg>
