<svg width="24" height="21" viewBox="0 0 24 21" fill="none" xmlns="http://www.w3.org/2000/svg">
<path d="M12 0L0 11.1176H3.6V21H20.4V11.1176H24L12 0ZM12 5.80588C14.52 5.80588 16.56 7.90588 16.56 10.5C16.56 14.2059 12 18.5294 12 18.5294C12 18.5294 7.44 14.2059 7.44 10.5C7.44 7.90588 9.48 5.80588 12 5.80588ZM12 8.64706C11.5226 8.64706 11.0648 8.84228 10.7272 9.18977C10.3896 9.53727 10.2 10.0086 10.2 10.5C10.2 10.9914 10.3896 11.4627 10.7272 11.8102C11.0648 12.1577 11.5226 12.3529 12 12.3529C12.4774 12.3529 12.9352 12.1577 13.2728 11.8102C13.6104 11.4627 13.8 10.9914 13.8 10.5C13.8 10.0086 13.6104 9.53727 13.2728 9.18977C12.9352 8.84228 12.4774 8.64706 12 8.64706Z" fill="#0CABC7"/>
</svg>
