<svg width="20" height="19" viewBox="0 0 20 19" fill="none" xmlns="http://www.w3.org/2000/svg">
<path d="M10 16.34C7.625 16.34 5.5255 15.124 4.3 13.3C4.3285 11.4 8.1 10.355 10 10.355C11.9 10.355 15.6715 11.4 15.7 13.3C14.4745 15.124 12.375 16.34 10 16.34ZM10 2.85C10.7559 2.85 11.4808 3.15027 12.0153 3.68475C12.5497 4.21922 12.85 4.94413 12.85 5.7C12.85 6.45587 12.5497 7.18078 12.0153 7.71525C11.4808 8.24973 10.7559 8.55 10 8.55C9.24413 8.55 8.51922 8.24973 7.98475 7.71525C7.45027 7.18078 7.15 6.45587 7.15 5.7C7.15 4.94413 7.45027 4.21922 7.98475 3.68475C8.51922 3.15027 9.24413 2.85 10 2.85ZM10 0C8.75244 0 7.5171 0.245725 6.36451 0.723144C5.21191 1.20056 4.16464 1.90033 3.28249 2.78249C1.50089 4.56408 0.5 6.98044 0.5 9.5C0.5 12.0196 1.50089 14.4359 3.28249 16.2175C4.16464 17.0997 5.21191 17.7994 6.36451 18.2769C7.5171 18.7543 8.75244 19 10 19C12.5196 19 14.9359 17.9991 16.7175 16.2175C18.4991 14.4359 19.5 12.0196 19.5 9.5C19.5 4.2465 15.225 0 10 0Z" fill="#4C4D4F"/>
</svg>
