<svg width="21" height="21" viewBox="0 0 21 21" fill="none" xmlns="http://www.w3.org/2000/svg">
<path d="M7.35 21C6.7725 21 6.3 20.5275 6.3 19.95V16.8H2.1C0.945 16.8 0 15.8655 0 14.7V2.1C0 0.9345 0.945 0 2.1 0H18.9C20.0655 0 21 0.945 21 2.1V14.7C21 15.8655 20.0655 16.8 18.9 16.8H12.495L8.61 20.6955C8.4 20.895 8.1375 21 7.875 21H7.35ZM8.4 14.7V17.934L11.634 14.7H18.9V2.1H2.1V14.7H8.4ZM14.532 6.51L13.4715 7.5705L11.298 5.439L12.3585 4.368C12.5685 4.1475 12.9255 4.137 13.1775 4.368L14.532 5.6805C14.7525 5.901 14.763 6.258 14.532 6.51ZM6.3 10.4055L10.6785 6.006L12.852 8.19L8.484 12.6H6.3V10.4055Z" fill="#E31937"/>
</svg>
