<svg width="22" height="21" viewBox="0 0 22 21" fill="none" xmlns="http://www.w3.org/2000/svg">
<path d="M19.0578 0C19.6684 0 20.254 0.242555 20.6857 0.674305C21.1175 1.10606 21.36 1.69163 21.36 2.30222V18.4178C21.36 19.0284 21.1175 19.6139 20.6857 20.0457C20.254 20.4774 19.6684 20.72 19.0578 20.72H2.94224C2.33165 20.72 1.74607 20.4774 1.31432 20.0457C0.882569 19.6139 0.640015 19.0284 0.640015 18.4178V2.30222C0.640015 1.69163 0.882569 1.10606 1.31432 0.674305C1.74607 0.242555 2.33165 0 2.94224 0H19.0578ZM18.4822 17.8422V11.7413C18.4822 10.7461 18.0869 9.79158 17.3831 9.08783C16.6794 8.38408 15.7249 7.98871 14.7296 7.98871C13.7512 7.98871 12.6116 8.58729 12.059 9.48516V8.20742H8.84744V17.8422H12.059V12.1672C12.059 11.2809 12.7727 10.5557 13.6591 10.5557C14.0865 10.5557 14.4964 10.7255 14.7986 11.0277C15.1008 11.3299 15.2706 11.7398 15.2706 12.1672V17.8422H18.4822ZM5.10633 6.40018C5.61922 6.40018 6.11111 6.19643 6.47378 5.83376C6.83645 5.47109 7.04019 4.9792 7.04019 4.46631C7.04019 3.39578 6.17686 2.52093 5.10633 2.52093C4.59038 2.52093 4.09557 2.72589 3.73074 3.09072C3.36591 3.45555 3.16095 3.95037 3.16095 4.46631C3.16095 5.53684 4.03579 6.40018 5.10633 6.40018ZM6.70637 17.8422V8.20742H3.51779V17.8422H6.70637Z" fill="white"/>
</svg>
