<svg width="15" height="17" viewBox="0 0 15 17" fill="none" xmlns="http://www.w3.org/2000/svg">
<path d="M15 13.7619V14.5714H0V13.7619L1.66667 12.1429V7.28571C1.66667 4.77619 3.35833 2.56619 5.83333 1.85381C5.83333 1.77286 5.83333 1.7 5.83333 1.61905C5.83333 1.18965 6.00893 0.777838 6.32149 0.474208C6.63405 0.170578 7.05797 0 7.5 0C7.94203 0 8.36595 0.170578 8.67851 0.474208C8.99107 0.777838 9.16667 1.18965 9.16667 1.61905C9.16667 1.7 9.16667 1.77286 9.16667 1.85381C11.6417 2.56619 13.3333 4.77619 13.3333 7.28571V12.1429L15 13.7619ZM9.16667 15.381C9.16667 15.8104 8.99107 16.2222 8.67851 16.5258C8.36595 16.8294 7.94203 17 7.5 17C7.05797 17 6.63405 16.8294 6.32149 16.5258C6.00893 16.2222 5.83333 15.8104 5.83333 15.381" fill="#0CABC7"/>
</svg>
