<svg width="23" height="20" viewBox="0 0 23 20" fill="none" xmlns="http://www.w3.org/2000/svg">
<path d="M19.228 13.0396C19.6305 12.1035 19.849 11.1013 19.849 10C19.849 9.20705 19.7225 8.44714 19.504 7.74229C18.7565 7.90749 17.9745 7.99559 17.158 7.99559C13.639 7.99559 10.5225 6.3326 8.625 3.76652C7.6015 6.14537 5.6465 8.0837 3.1855 9.14097C3.1395 9.4163 3.1395 9.71366 3.1395 10C3.1395 12.1235 4.02034 14.16 5.58823 15.6615C7.15613 17.1631 9.28266 18.0066 11.5 18.0066C12.7075 18.0066 13.869 17.7533 14.9155 17.3018C15.571 18.5022 15.87 19.0969 15.847 19.0969C13.961 19.7026 12.5005 20 11.5 20C8.717 20 6.0605 18.9537 4.1055 17.0705C2.9095 15.9251 2.024 14.5264 1.5295 13.0066H0V7.99559H1.2535C2.2195 3.43612 6.44 0 11.5 0C14.26 0 16.9165 1.04626 18.883 2.92952C20.3435 4.31718 21.321 6.09031 21.7235 7.99559H23V12.9405V12.9626V13.0066H22.931L18.837 16.6079L12.742 15.9471V14.1079H18.2965L19.228 13.0396ZM8.3605 9.7467C8.7055 9.7467 9.039 9.87885 9.2805 10.1211C9.522 10.3524 9.66 10.6718 9.66 11.0022C9.66 11.3326 9.522 11.652 9.2805 11.8833C9.039 12.1145 8.7055 12.2467 8.3605 12.2467C7.636 12.2467 7.0495 11.696 7.0495 11.0022C7.0495 10.3084 7.636 9.7467 8.3605 9.7467ZM14.628 9.7467C15.3525 9.7467 15.9275 10.3084 15.9275 11.0022C15.9275 11.696 15.3525 12.2467 14.628 12.2467C13.9035 12.2467 13.317 11.696 13.317 11.0022C13.317 10.6692 13.4551 10.3499 13.701 10.1144C13.9468 9.87897 14.2803 9.7467 14.628 9.7467Z" fill="#E31937"/>
</svg>
