<svg width="21" height="19" viewBox="0 0 21 19" fill="none" xmlns="http://www.w3.org/2000/svg">
<path d="M20.72 2.56939C19.9574 2.93504 19.1353 3.17532 18.2835 3.29024C19.1551 2.73655 19.8286 1.85899 20.1455 0.803839C19.3235 1.32619 18.4123 1.69184 17.4515 1.90078C16.6691 1.00233 15.5697 0.47998 14.3218 0.47998C11.9942 0.47998 10.0926 2.48582 10.0926 4.96177C10.0926 5.31697 10.1322 5.66172 10.2015 5.98558C6.67556 5.79753 3.53587 4.01109 1.44604 1.3053C1.07958 1.96346 0.871587 2.73655 0.871587 3.55142C0.871587 5.10803 1.61442 6.48704 2.76333 7.27057C2.06011 7.27057 1.40642 7.06163 0.83197 6.74822C0.83197 6.74822 0.83197 6.74822 0.83197 6.77956C0.83197 8.95255 2.29782 10.7703 4.23908 11.1778C3.88252 11.2822 3.50616 11.3345 3.11989 11.3345C2.85247 11.3345 2.58505 11.3031 2.32753 11.2509C2.86237 13.0165 4.41736 14.3328 6.28929 14.3641C4.84325 15.576 3.01094 16.2864 1.01025 16.2864C0.673499 16.2864 0.33675 16.2655 0 16.2237C1.88184 17.4982 4.12023 18.24 6.51709 18.24C14.3218 18.24 18.6104 11.4076 18.6104 5.48412C18.6104 5.28563 18.6104 5.09758 18.6005 4.89909C19.4324 4.27226 20.1455 3.47829 20.72 2.56939Z" fill="white"/>
</svg>
