<svg aria-hidden="true" style="position: absolute; width: 0; height: 0; overflow: hidden;" version="1.1" xmlns="http://www.w3.org/2000/svg" xmlns:xlink="http://www.w3.org/1999/xlink">
<defs>
<symbol id="icon-succesfuly-submitted-close-modal" viewBox="0 0 32 32">
<path fill="#4c4d4f" style="fill: var(--color1, #4c4d4f)" d="M19.337 16l12.663 12.663v3.337h-3.337l-12.663-12.663-12.663 12.663h-3.337v-3.337l12.663-12.663-12.663-12.663v-3.337h3.337l12.663 12.663 12.663-12.663h3.337v3.337l-12.663 12.663z"></path>
</symbol>
<symbol id="icon-check-vector-small" viewBox="0 0 37 32">
<path fill="#fff" style="fill: var(--color2, #fff)" d="M12.004 32l-12.004-12.788 5.47-5.828 6.533 6.981 19.098-20.366 5.47 5.828-24.568 26.172z"></path>
</symbol>
<symbol id="icon-accordion-body-add-file" viewBox="0 0 32 32">
<path fill="#0cabc7" style="fill: var(--color3, #0cabc7)" d="M19 0h-12c-0.796 0-1.559 0.337-2.121 0.937s-0.879 1.414-0.879 2.263v25.6c0 0.849 0.316 1.663 0.879 2.263s1.326 0.937 2.121 0.937h18c0.796 0 1.559-0.337 2.121-0.937s0.879-1.414 0.879-2.263v-19.2l-9-9.6zM18.25 22.4v4.8h-4.5v-4.8h-3.75l6-6.4 6 6.4h-3.75zM17.5 11.2v-8.8l8.25 8.8h-8.25z"></path>
</symbol>
<symbol id="icon-accordion-body-edit" viewBox="0 0 32 32">
<path fill="#0cabc7" style="fill: var(--color3, #0cabc7)" d="M31.48 7.186c0.693-0.693 0.693-1.849 0-2.506l-4.159-4.159c-0.658-0.693-1.813-0.693-2.506 0l-3.271 3.253 6.666 6.666zM0 25.334v6.666h6.666l19.66-19.677-6.666-6.666-19.66 19.677z"></path>
</symbol>
<symbol id="icon-active-requests" viewBox="0 0 32 32">
<path fill="#0cabc7" style="fill: var(--color3, #0cabc7)" d="M19.048 9.726h-2.286v7.843l6.522 3.984 1.097-1.898-5.333-3.263v-6.667zM18.286 1.882c-3.637 0-7.126 1.487-9.697 4.135s-4.017 6.238-4.017 9.983h-4.571l6.034 6.322 6.156-6.322h-4.571c0-2.912 1.124-5.705 3.124-7.764s4.713-3.216 7.542-3.216c2.829 0 5.542 1.157 7.542 3.216s3.124 4.852 3.124 7.764c0 2.912-1.124 5.705-3.124 7.764s-4.713 3.216-7.542 3.216c-2.941 0-5.608-1.239-7.528-3.231l-2.164 2.227c2.484 2.573 5.882 4.141 9.691 4.141 3.637 0 7.125-1.487 9.698-4.135s4.017-6.238 4.017-9.983-1.445-7.335-4.017-9.983c-2.572-2.648-6.060-4.135-9.698-4.135z"></path>
</symbol>
<symbol id="icon-additional-information" viewBox="0 0 32 32">
<path fill="#848484" style="fill: var(--color4, #848484)" d="M14.917 11.467h3.049v-3.022h-3.049zM16.442 28.089c-6.723 0-12.196-5.425-12.196-12.089s5.473-12.089 12.196-12.089c6.723 0 12.196 5.425 12.196 12.089s-5.473 12.089-12.196 12.089zM16.442 0.889c-2.002 0-3.984 0.391-5.834 1.15s-3.53 1.872-4.946 3.276c-2.859 2.834-4.465 6.677-4.465 10.685s1.606 7.851 4.465 10.685c1.416 1.403 3.096 2.516 4.946 3.276s3.832 1.15 5.834 1.15c4.043 0 7.921-1.592 10.779-4.426s4.465-6.678 4.465-10.685c0-1.984-0.394-3.949-1.16-5.783s-1.889-3.499-3.305-4.902c-1.415-1.403-3.096-2.516-4.946-3.276s-3.832-1.15-5.834-1.15zM14.917 23.556h3.049v-9.067h-3.049v9.067z"></path>
</symbol>
<symbol id="icon-arrow-bg" viewBox="0 0 32 32">
<path fill="none" stroke="#e31937" style="stroke: var(--color5, #e31937)" stroke-linejoin="miter" stroke-linecap="butt" stroke-miterlimit="4" stroke-width="4.8" d="M8 3.2l12.8 12.8-12.8 12.8"></path>
</symbol>
<symbol id="icon-arrow-down-bg" viewBox="0 0 32 32">
<path fill="none" stroke="#e31937" style="stroke: var(--color5, #e31937)" stroke-linejoin="miter" stroke-linecap="butt" stroke-miterlimit="4" stroke-width="4.8" d="M28.8 8l-12.8 12.8-12.8-12.8"></path>
</symbol>
<symbol id="icon-arrow-down-blue-small" viewBox="0 0 32 32">
<path fill="none" stroke="#0cabc7" style="stroke: var(--color3, #0cabc7)" stroke-linejoin="miter" stroke-linecap="butt" stroke-miterlimit="4" stroke-width="4.8" d="M28.8 8l-12.8 12.8-12.8-12.8"></path>
</symbol>
<symbol id="icon-arrow-red-sm" viewBox="0 0 32 32">
<path fill="none" stroke="#e31937" style="stroke: var(--color5, #e31937)" stroke-linejoin="miter" stroke-linecap="butt" stroke-miterlimit="4" stroke-width="8" d="M8 5.333l10.667 10.667-10.667 10.667"></path>
</symbol>
<symbol id="icon-arrow-sm" viewBox="0 0 32 32">
<path fill="none" stroke="#4c4d4f" style="stroke: var(--color1, #4c4d4f)" stroke-linejoin="miter" stroke-linecap="butt" stroke-miterlimit="4" stroke-width="8" d="M8 5.333l10.667 10.667-10.667 10.667"></path>
</symbol>
<symbol id="icon-bills" viewBox="0 0 32 32">
<path fill="#e31937" style="fill: var(--color5, #e31937)" d="M20.419 14.125c3.938 0 7.089 3.139 7.089 7.062 0 1.381-0.394 2.684-1.087 3.767l4.852 4.865-2.19 2.182-4.915-4.818c-1.087 0.675-2.379 1.067-3.749 1.067-3.938 0-7.089-3.139-7.089-7.062s3.151-7.062 7.089-7.062zM20.419 17.263c-1.044 0-2.046 0.413-2.785 1.149s-1.154 1.734-1.154 2.774 0.415 2.039 1.154 2.774c0.738 0.736 1.74 1.149 2.785 1.149s2.046-0.413 2.785-1.149c0.738-0.736 1.153-1.734 1.153-2.774s-0.415-2.039-1.153-2.774c-0.739-0.736-1.74-1.149-2.785-1.149zM3.878 0h22.054c1.749 0 3.151 1.397 3.151 3.139v12.602c-0.788-1.256-1.875-2.338-3.151-3.186v-9.416h-22.054v21.972h7.089c0.488 1.177 1.197 2.229 2.064 3.139h-9.153c-1.749 0-3.151-1.397-3.151-3.139v-21.972c0-1.742 1.402-3.139 3.151-3.139zM7.029 6.278h15.753v3.139h-15.753v-3.139zM7.029 12.555h7.924c-1.26 0.785-2.347 1.868-3.198 3.139h-4.726v-3.139zM7.029 18.833h3.418c-0.173 0.785-0.268 1.569-0.268 2.354v0.785h-3.151v-3.139z"></path>
</symbol>
<symbol id="icon-burger" viewBox="0 0 32 32">
<path fill="#4c4d4f" style="fill: var(--color1, #4c4d4f)" d="M0.634 6.857h30.476v3.048h-30.476v-3.048zM0.634 14.476h30.476v3.048h-30.476v-3.048zM0.634 22.095h30.476v3.048h-30.476v-3.048z"></path>
</symbol>
<symbol id="icon-checked" viewBox="0 0 32 32">
<path fill="#0cabc7" style="fill: var(--color3, #0cabc7); stroke: var(--color3, #0cabc7)" stroke="#0cabc7" stroke-linejoin="miter" stroke-linecap="butt" stroke-miterlimit="4" stroke-width="4" d="M16 2c7.732 0 14 6.268 14 14s-6.268 14-14 14c-7.732 0-14-6.268-14-14s6.268-14 14-14z"></path>
</symbol>
<symbol id="icon-check-vector" viewBox="0 0 32 32">
<path fill="#fff" style="fill: var(--color2, #fff); stroke: var(--color2, #fff)" stroke="#fff" stroke-linejoin="miter" stroke-linecap="butt" stroke-miterlimit="4" stroke-width="0.4923" d="M4.817 15.39l-0.17-0.162-0.17 0.16-2.373 2.25 0.187 0.18 8.775 8.369 0.17-0.162 18.658-17.799-0.187-0.177-2.341-2.233-0.17 0.162-16.13 15.375-6.25-5.962z"></path>
</symbol>
<symbol id="icon-commercial" viewBox="0 0 32 32">
<path fill="#c1c1c1" style="fill: var(--color6, #c1c1c1)" d="M20.952 15.158v-10.105l-4.952-5.053-4.952 5.053v3.368h-9.905v23.579h29.714v-16.842h-9.905zM7.746 28.632h-3.302v-3.368h3.302v3.368zM7.746 21.895h-3.302v-3.368h3.302v3.368zM7.746 15.158h-3.302v-3.368h3.302v3.368zM17.651 28.632h-3.302v-3.368h3.302v3.368zM17.651 21.895h-3.302v-3.368h3.302v3.368zM17.651 15.158h-3.302v-3.368h3.302v3.368zM17.651 8.421h-3.302v-3.368h3.302v3.368zM27.556 28.632h-3.302v-3.368h3.302v3.368zM27.556 21.895h-3.302v-3.368h3.302v3.368z"></path>
</symbol>
<symbol id="icon-contact" viewBox="0 0 32 32">
<path fill="#fff" style="fill: var(--color2, #fff)" d="M16 1.143c8.8 0 16 5.569 16 12.444s-7.2 12.444-16 12.444c-1.984 0-3.888-0.28-5.648-0.778-4.672 3.889-10.352 3.889-10.352 3.889 3.728-3.624 4.32-6.067 4.4-7-2.72-2.224-4.4-5.242-4.4-8.556 0-6.876 7.2-12.444 16-12.444zM24 15.143v-3.111h-3.2v3.111h3.2zM17.6 15.143v-3.111h-3.2v3.111h3.2zM11.2 15.143v-3.111h-3.2v3.111h3.2z"></path>
</symbol>
<symbol id="icon-cross-within-a-circle-add-blue" viewBox="0 0 32 32">
<path fill="#0cabc7" style="fill: var(--color3, #0cabc7)" d="M24 17.6h-6.4v6.4h-3.2v-6.4h-6.4v-3.2h6.4v-6.4h3.2v6.4h6.4zM16 0c-2.101 0-4.182 0.414-6.123 1.218s-3.705 1.983-5.191 3.468c-3.001 3.001-4.686 7.070-4.686 11.314s1.686 8.313 4.686 11.314c1.486 1.486 3.25 2.664 5.191 3.468s4.022 1.218 6.123 1.218c4.243 0 8.313-1.686 11.314-4.686s4.686-7.070 4.686-11.314c0-2.101-0.414-4.182-1.218-6.123s-1.983-3.705-3.468-5.191c-1.486-1.486-3.25-2.664-5.191-3.468s-4.022-1.218-6.123-1.218z"></path>
</symbol>
<symbol id="icon-cross-within-a-circle-remove" viewBox="0 0 32 32">
<path fill="#c1c1c1" style="fill: var(--color6, #c1c1c1)" d="M16 0c8.848 0 16 7.152 16 16s-7.152 16-16 16c-8.848 0-16-7.152-16-16s7.152-16 16-16zM21.744 8l-5.744 5.744-5.744-5.744-2.256 2.256 5.744 5.744-5.744 5.744 2.256 2.256 5.744-5.744 5.744 5.744 2.256-2.256-5.744-5.744 5.744-5.744-2.256-2.256z"></path>
</symbol>
<symbol id="icon-dropdown-array-sm-blue" viewBox="0 0 32 32">
<path fill="none" stroke="#22ae95" style="stroke: var(--color7, #22ae95)" stroke-linejoin="miter" stroke-linecap="butt" stroke-miterlimit="4" stroke-width="3.2" d="M28.8 9.6l-12.8 12.8-12.8-12.8"></path>
</symbol>
<symbol id="icon-electricity" viewBox="0 0 32 32">
<path fill="#e31937" style="fill: var(--color5, #e31937)" d="M21.333 22.274h-8.284l-6.24-5.49h-3.253v-1.569h3.253l6.258-5.49h8.267v12.549zM32 22.274v-3.137h-7.111v-6.275h7.111v-3.137h-7.111v-0.016c0.018-1.71-1.582-3.122-3.52-3.122h-9.813l-6.222 5.49h-5.333v7.843h5.333l6.24 5.49h9.76c1.956 0 3.556-1.412 3.556-3.137h7.111z"></path>
</symbol>
<symbol id="icon-facebook" viewBox="0 0 32 32">
<path fill="#fff" style="fill: var(--color2, #fff)" d="M15.534 0.727c-8.288 0-15.069 6.793-15.069 15.16 0 7.565 5.515 13.844 12.718 14.978v-10.591h-3.828v-4.388h3.828v-3.344c0-3.798 2.245-5.885 5.696-5.885 1.642 0 3.36 0.287 3.36 0.287v3.737h-1.899c-1.869 0-2.456 1.165-2.456 2.36v2.844h4.189l-0.678 4.388h-3.511v10.591c3.551-0.563 6.784-2.382 9.117-5.129s3.61-6.24 3.602-9.849c0-8.367-6.781-15.16-15.069-15.16z"></path>
</symbol>
<symbol id="icon-feedback" viewBox="0 0 32 32">
<path fill="#fff" style="fill: var(--color2, #fff)" d="M16.41 7.059h-13.128c-0.87 0-1.705 0.372-2.321 1.034s-0.961 1.56-0.961 2.496v7.059c0 0.936 0.346 1.834 0.961 2.496s1.45 1.034 2.321 1.034h1.641v7.059c0 0.468 0.173 0.917 0.481 1.248s0.725 0.517 1.16 0.517h3.282c0.435 0 0.853-0.186 1.16-0.517s0.481-0.78 0.481-1.248v-7.059h4.923l8.205 7.059v-28.235l-8.205 7.059zM32 14.118c0 3.018-1.575 5.753-4.103 7.059v-14.118c2.511 1.324 4.103 4.059 4.103 7.059z"></path>
</symbol>
<symbol id="icon-file-jpeg" viewBox="0 0 32 32">
<path fill="#4dbc7d" style="fill: var(--color8, #4dbc7d)" d="M28.444 0h-24.889c-1.956 0-3.556 1.6-3.556 3.556v24.889c0 1.956 1.6 3.556 3.556 3.556h24.889c1.956 0 3.556-1.6 3.556-3.556v-24.889c0-1.956-1.6-3.556-3.556-3.556zM10.667 18.667c0 1.956-1.6 2.667-3.556 2.667s-3.556-0.711-3.556-2.667v-2.667h2.667v2.667h1.778v-8h2.667v8zM19.556 15.111c0 1.422-1.244 2.667-2.667 2.667h-1.778v3.556h-2.667v-10.667h4.444c1.422 0 2.667 1.244 2.667 2.667v1.778zM28.444 13.333h-4.444v5.333h1.778v-2.667h2.667v3.022c0 1.244-0.889 2.311-2.311 2.311h-2.311c-1.422 0-2.311-1.244-2.311-2.311v-5.867c-0.178-1.244 0.711-2.489 2.133-2.489h2.311c1.422 0 2.311 1.244 2.311 2.311v0.356zM15.111 13.333h1.778v1.778h-1.778v-1.778z"></path>
</symbol>
<symbol id="icon-file-png" viewBox="0 0 32 32">
<path fill="#e31937" style="fill: var(--color5, #e31937)" d="M28.444 0h-24.889c-1.956 0-3.556 1.6-3.556 3.556v24.889c0 1.956 1.6 3.556 3.556 3.556h24.889c1.956 0 3.556-1.6 3.556-3.556v-24.889c0-1.956-1.6-3.556-3.556-3.556zM11.556 15.111c0 1.422-1.244 2.667-2.667 2.667h-1.778v3.556h-2.667v-10.667h4.444c1.422 0 2.667 1.244 2.667 2.667v1.778zM20.444 18.667c0 1.422-1.244 2.667-2.667 2.667h-4.444v-10.667h4.444c1.422 0 2.667 1.244 2.667 2.667v5.333zM27.556 13.333h-2.667v1.778h2.667v2.667h-2.667v3.556h-2.667v-10.667h5.333v2.667zM16 13.333h1.778v5.333h-1.778v-5.333zM7.111 13.333h1.778v1.778h-1.778v-1.778z"></path>
</symbol>
<symbol id="icon-instagram" viewBox="0 0 32 32">
<path fill="#fff" style="fill: var(--color2, #fff)" d="M9.583 0h13.261c5.052 0 9.156 4.105 9.156 9.156v13.261c0 2.428-0.965 4.757-2.682 6.474s-4.046 2.682-6.474 2.682h-13.261c-5.052 0-9.156-4.105-9.156-9.156v-13.261c0-2.428 0.965-4.757 2.682-6.474s4.046-2.682 6.474-2.682zM9.267 3.157c-1.507 0-2.953 0.599-4.019 1.665s-1.665 2.511-1.665 4.019v13.892c0 3.142 2.542 5.683 5.683 5.683h13.892c1.507 0 2.953-0.599 4.019-1.665s1.664-2.511 1.664-4.019v-13.892c0-3.142-2.542-5.683-5.683-5.683h-13.892zM24.501 5.525c0.523 0 1.025 0.208 1.395 0.578s0.578 0.872 0.578 1.395-0.208 1.025-0.578 1.395c-0.37 0.37-0.872 0.578-1.395 0.578s-1.025-0.208-1.395-0.578c-0.37-0.37-0.578-0.872-0.578-1.395s0.208-1.025 0.578-1.395c0.37-0.37 0.872-0.578 1.395-0.578zM16.213 7.893c2.094 0 4.101 0.832 5.581 2.312s2.312 3.488 2.312 5.581-0.832 4.101-2.312 5.581c-1.48 1.48-3.488 2.312-5.581 2.312s-4.101-0.832-5.581-2.312c-1.48-1.48-2.312-3.488-2.312-5.581s0.832-4.101 2.312-5.581c1.48-1.48 3.488-2.312 5.581-2.312zM16.213 11.051c-1.256 0-2.461 0.499-3.349 1.387s-1.387 2.093-1.387 3.349c0 1.256 0.499 2.461 1.387 3.349s2.093 1.387 3.349 1.387c1.256 0 2.461-0.499 3.349-1.387s1.387-2.093 1.387-3.349-0.499-2.461-1.387-3.349c-0.888-0.888-2.093-1.387-3.349-1.387z"></path>
</symbol>
<symbol id="icon-linkedin" viewBox="0 0 32 32">
<path fill="#fff" style="fill: var(--color2, #fff)" d="M27.72 0.727c0.888 0 1.74 0.353 2.368 0.981s0.981 1.48 0.981 2.368v23.441c0 0.888-0.353 1.74-0.981 2.368s-1.48 0.981-2.368 0.981h-23.441c-0.888 0-1.74-0.353-2.368-0.981s-0.981-1.48-0.981-2.368v-23.441c0-0.888 0.353-1.74 0.981-2.368s1.48-0.981 2.368-0.981h23.441zM26.883 26.68v-8.874c0-1.448-0.575-2.836-1.599-3.86s-2.412-1.599-3.86-1.599c-1.423 0-3.081 0.871-3.884 2.177v-1.859h-4.671v14.014h4.671v-8.255c0-1.289 1.038-2.344 2.327-2.344 0.622 0 1.218 0.247 1.657 0.687s0.687 1.036 0.687 1.657v8.255h4.671zM7.427 10.037c0.746 0 1.461-0.296 1.989-0.824s0.824-1.243 0.824-1.989c0-1.557-1.256-2.83-2.813-2.83-0.75 0-1.47 0.298-2.001 0.829s-0.829 1.25-0.829 2.001c0 1.557 1.272 2.813 2.83 2.813zM9.755 26.68v-14.014h-4.638v14.014h4.638z"></path>
</symbol>
<symbol id="icon-login-energy-grey" viewBox="0 0 32 32">
<path fill="#c1c1c1" style="fill: var(--color6, #c1c1c1)" d="M16 2.526l-16 14.266h4.8v12.681h22.4v-12.681h4.8l-16-14.266zM15.2 26.303v-6.341h-4l5.6-11.096v6.341h4l-5.6 11.096z"></path>
</symbol>
<symbol id="icon-login-energy-red" viewBox="0 0 32 32">
<path fill="#e44b3f" style="fill: var(--color9, #e44b3f)" d="M16 2.526l-16 14.266h4.8v12.681h22.4v-12.681h4.8l-16-14.266zM15.2 26.303v-6.341h-4l5.6-11.096v6.341h4l-5.6 11.096z"></path>
</symbol>
<symbol id="icon-login-envelope" viewBox="0 0 32 32">
<path fill="#c1c1c1" style="fill: var(--color6, #c1c1c1)" d="M2.462 3.692c-1.345 0-2.462 1.116-2.462 2.462v19.692c0 1.345 1.116 2.462 2.462 2.462h27.077c1.345 0 2.462-1.116 2.462-2.462v-19.692c0-1.345-1.116-2.462-2.462-2.462h-27.077zM5.784 6.154h20.433l-10.216 7.55-10.216-7.55zM3.692 9.2l12.308 9.096 12.308-9.096v16.647h-24.615v-16.647z"></path>
</symbol>
<symbol id="icon-login-password" viewBox="0 0 32 32">
<path fill="#c1c1c1" style="fill: var(--color6, #c1c1c1)" d="M20.667 0c-6.259 0-11.333 5.075-11.333 11.333 0 1.39 0.264 2.715 0.721 3.945l-10.055 10.055v6.667h6.667v-4h4v-4h4l2.055-2.055c1.23 0.458 2.556 0.721 3.945 0.721 6.259 0 11.333-5.075 11.333-11.333s-5.075-11.333-11.333-11.333zM23.333 5.333c1.841 0 3.333 1.492 3.333 3.333s-1.492 3.333-3.333 3.333c-1.841 0-3.333-1.492-3.333-3.333s1.492-3.333 3.333-3.333z"></path>
</symbol>
<symbol id="icon-login-password-eye" viewBox="0 0 32 32">
<path fill="#919396" style="fill: var(--color10, #919396)" d="M16 12c-1.061 0-2.078 0.421-2.828 1.172s-1.172 1.768-1.172 2.828c0 1.061 0.421 2.078 1.172 2.828s1.768 1.172 2.828 1.172c1.061 0 2.078-0.421 2.828-1.172s1.172-1.768 1.172-2.828c0-1.061-0.421-2.078-1.172-2.828s-1.768-1.172-2.828-1.172zM16 22.667c-1.768 0-3.464-0.702-4.714-1.953s-1.953-2.946-1.953-4.714c0-1.768 0.702-3.464 1.953-4.714s2.946-1.953 4.714-1.953c1.768 0 3.464 0.702 4.714 1.953s1.953 2.946 1.953 4.714-0.702 3.464-1.953 4.714c-1.25 1.25-2.946 1.953-4.714 1.953zM16 6c-6.667 0-12.36 4.147-14.667 10 2.307 5.853 8 10 14.667 10s12.36-4.147 14.667-10c-2.307-5.853-8-10-14.667-10z"></path>
</symbol>
<symbol id="icon-login-power-service-blue" viewBox="0 0 32 32">
<path fill="#0cabc7" style="fill: var(--color3, #0cabc7)" d="M15.2 28.8l7.776-15.568h-5.376v-10.032l-8 15.568h5.6v10.032zM16 0c4.4 0 8.16 1.6 11.28 4.72s4.72 6.88 4.72 11.28c0 4.4-1.6 8.16-4.72 11.28s-6.88 4.72-11.28 4.72c-4.4 0-8.16-1.6-11.28-4.72s-4.72-6.88-4.72-11.28c0-4.4 1.6-8.16 4.72-11.28s6.88-4.72 11.28-4.72z"></path>
</symbol>
<symbol id="icon-login-power-service-grey" viewBox="0 0 32 32">
<path fill="#c1c1c1" style="fill: var(--color6, #c1c1c1)" d="M15.2 28.8l7.776-15.568h-5.376v-10.032l-8 15.568h5.6v10.032zM16 0c4.4 0 8.16 1.6 11.28 4.72s4.72 6.88 4.72 11.28c0 4.4-1.6 8.16-4.72 11.28s-6.88 4.72-11.28 4.72c-4.4 0-8.16-1.6-11.28-4.72s-4.72-6.88-4.72-11.28c0-4.4 1.6-8.16 4.72-11.28s6.88-4.72 11.28-4.72z"></path>
</symbol>
<symbol id="icon-magnifire" viewBox="0 0 32 32">
<path fill="#4c4d4f" style="fill: var(--color1, #4c4d4f)" d="M11.954 0.762c3.002 0 5.881 1.193 8.004 3.315s3.316 5.002 3.316 8.004c0 2.804-1.027 5.381-2.717 7.367l0.47 0.47h1.376l8.707 8.707-2.612 2.612-8.707-8.707v-1.376l-0.47-0.47c-1.985 1.689-4.563 2.717-7.367 2.717-3.002 0-5.881-1.193-8.004-3.315s-3.315-5.002-3.315-8.004 1.193-5.881 3.315-8.004c2.123-2.123 5.002-3.315 8.004-3.315zM11.954 4.245c-4.354 0-7.837 3.483-7.837 7.837s3.483 7.837 7.837 7.837c4.354 0 7.837-3.483 7.837-7.837s-3.483-7.837-7.837-7.837z"></path>
</symbol>
<symbol id="icon-meter" viewBox="0 0 32 32">
<path fill="#e31937" style="fill: var(--color5, #e31937)" d="M29.405 10.073l-1.971 3.179c0.951 2.033 1.416 4.287 1.355 6.56s-0.648 4.495-1.707 6.465h-22.212c-1.376-2.56-1.947-5.528-1.626-8.463s1.514-5.681 3.405-7.832c1.89-2.15 4.377-3.59 7.090-4.106s5.51-0.081 7.975 1.241l2.965-2.114c-3.019-2.075-6.599-3.005-10.169-2.641s-6.922 2.001-9.522 4.65c-2.599 2.649-4.295 6.155-4.816 9.959s0.163 7.686 1.942 11.024c0.28 0.52 0.681 0.951 1.165 1.253s1.032 0.462 1.592 0.466h22.196c0.565 0.002 1.12-0.155 1.61-0.457s0.896-0.737 1.178-1.261c1.477-2.743 2.218-5.869 2.142-9.035s-0.967-6.247-2.574-8.904l-0.016 0.017zM13.715 21.827c0.298 0.32 0.651 0.573 1.040 0.746s0.806 0.262 1.227 0.262c0.421 0 0.838-0.089 1.227-0.262s0.743-0.426 1.040-0.746l9.071-14.589-13.606 9.726c-0.298 0.319-0.534 0.698-0.696 1.115s-0.244 0.864-0.244 1.316c0 0.452 0.083 0.899 0.244 1.316s0.398 0.796 0.696 1.115z"></path>
</symbol>
<symbol id="icon-modify-existing-service" viewBox="0 0 32 32">
<path fill="#0cabc7" style="fill: var(--color3, #0cabc7)" d="M16 2l-16 14.823h4.8v13.177h22.4v-13.177h4.8l-16-14.823zM16 9.741c3.36 0 6.080 2.8 6.080 6.259 0 4.941-6.080 10.706-6.080 10.706s-6.080-5.765-6.080-10.706c0-3.459 2.72-6.259 6.080-6.259zM16 13.529c-0.637 0-1.247 0.26-1.697 0.724s-0.703 1.092-0.703 1.747c0 0.655 0.253 1.284 0.703 1.747s1.061 0.724 1.697 0.724c0.637 0 1.247-0.26 1.697-0.724s0.703-1.092 0.703-1.747c0-0.655-0.253-1.284-0.703-1.747s-1.061-0.724-1.697-0.724z"></path>
</symbol>
<symbol id="icon-moving" viewBox="0 0 32 32">
<path fill="#e31937" style="fill: var(--color5, #e31937)" d="M24.727 24.84c-0.579 0-1.134-0.215-1.543-0.597s-0.639-0.901-0.639-1.443 0.23-1.060 0.639-1.443c0.409-0.382 0.964-0.597 1.543-0.597s1.134 0.215 1.543 0.597c0.409 0.383 0.639 0.901 0.639 1.443s-0.23 1.060-0.639 1.443c-0.409 0.382-0.964 0.597-1.543 0.597zM26.909 12.6l2.851 3.4h-6.487v-3.4zM7.273 24.84c-0.579 0-1.134-0.215-1.543-0.597s-0.639-0.901-0.639-1.443 0.23-1.060 0.639-1.443c0.409-0.382 0.964-0.597 1.543-0.597s1.134 0.215 1.543 0.597c0.409 0.383 0.639 0.901 0.639 1.443s-0.23 1.060-0.639 1.443c-0.409 0.382-0.964 0.597-1.543 0.597zM27.636 10.56h-4.364v-5.44h-20.364c-1.615 0-2.909 1.21-2.909 2.72v14.96h2.909c0 1.082 0.46 2.12 1.278 2.885s1.928 1.195 3.086 1.195c1.157 0 2.267-0.43 3.086-1.195s1.278-1.803 1.278-2.885h8.727c0 1.082 0.46 2.12 1.278 2.885s1.928 1.195 3.086 1.195c1.157 0 2.267-0.43 3.086-1.195s1.278-1.803 1.278-2.885h2.909v-6.8l-4.364-5.44z"></path>
</symbol>
<symbol id="icon-neighbourhood-power" viewBox="0 0 32 32">
<path fill="#e31937" style="fill: var(--color5, #e31937)" d="M20.978 15.158v-10.105l-4.978-5.053-4.978 5.053v3.368h-9.956v23.579h29.867v-16.842h-9.956zM7.704 28.632h-3.318v-3.369h3.319v3.369zM7.704 21.895h-3.318v-3.369h3.319v3.369zM7.704 15.158h-3.318v-3.368h3.319v3.368zM17.659 28.632h-3.319v-3.369h3.319v3.369zM17.659 21.895h-3.319v-3.369h3.319v3.369zM17.659 15.158h-3.319v-3.368h3.319v3.368zM17.659 8.421h-3.319v-3.368h3.319v3.368zM27.615 28.632h-3.318v-3.369h3.318v3.369zM27.615 21.895h-3.318v-3.369h3.318v3.369z"></path>
</symbol>
<symbol id="icon-new-services-request" viewBox="0 0 32 32">
<path fill="#fff" style="fill: var(--color2, #fff)" d="M11.286 30.4c0 0.8 0.629 1.6 1.571 1.6h6.286c0.943 0 1.571-0.8 1.571-1.6v-1.6h-9.429v1.6zM16 0c-6.129 0-11 4.96-11 11.2 0 3.84 1.886 7.2 4.714 9.12v3.68c0 0.8 0.629 1.6 1.571 1.6h9.429c0.943 0 1.571-0.8 1.571-1.6v-3.68c2.828-2.080 4.714-5.44 4.714-9.12 0-6.24-4.871-11.2-11-11.2z"></path>
</symbol>
<symbol id="icon-notices" viewBox="0 0 32 32">
<path fill="#0cabc7" style="fill: var(--color3, #0cabc7)" d="M30.118 25.905v1.524h-28.235v-1.524l3.137-3.048v-9.143c0-4.724 3.184-8.884 7.843-10.225 0-0.152 0-0.29 0-0.442 0-0.808 0.331-1.583 0.919-2.155s1.386-0.893 2.218-0.893c0.832 0 1.63 0.321 2.218 0.893s0.919 1.347 0.919 2.155c0 0.152 0 0.29 0 0.442 4.659 1.341 7.843 5.501 7.843 10.225v9.143l3.137 3.048zM19.137 28.952c0 0.808-0.331 1.583-0.919 2.155s-1.386 0.893-2.218 0.893c-0.832 0-1.63-0.321-2.218-0.893s-0.919-1.347-0.919-2.155z"></path>
</symbol>
<symbol id="icon-outages" viewBox="0 0 32 32">
<path fill="#e31937" style="fill: var(--color5, #e31937)" d="M17.455 19.478h-2.909v-6.957h2.909zM17.455 25.043h-2.909v-2.783h2.909zM0 29.217h32l-16-26.435-16 26.435z"></path>
</symbol>
<symbol id="icon-payment" viewBox="0 0 32 32">
<path fill="#e31937" style="fill: var(--color5, #e31937)" d="M28.8 3.048h-25.6c-0.849 0-1.663 0.341-2.263 0.948s-0.937 1.431-0.937 2.29v19.429c0 0.859 0.337 1.682 0.937 2.29s1.414 0.948 2.263 0.948h25.6c0.849 0 1.663-0.341 2.263-0.948s0.937-1.431 0.937-2.29v-19.429c0-0.859-0.337-1.682-0.937-2.29s-1.414-0.948-2.263-0.948zM28.8 14.381h-25.6v-4.857h25.6v4.857z"></path>
</symbol>
<symbol id="icon-pencil-blue" viewBox="0 0 32 32">
<path fill="#0cabc7" style="fill: var(--color3, #0cabc7)" d="M31.48 7.186c0.693-0.693 0.693-1.849 0-2.506l-4.16-4.159c-0.658-0.693-1.813-0.693-2.506 0l-3.271 3.253 6.666 6.666zM0 25.334v6.666h6.666l19.66-19.677-6.666-6.666-19.659 19.677z"></path>
</symbol>
<symbol id="icon-plans" viewBox="0 0 32 32">
<path fill="#e31937" style="fill: var(--color5, #e31937)" d="M4.8 29.333v-12.549h-4.8l16-14.118 16 14.118h-4.8v12.549h-22.4zM16 6.886l-8 7.059v12.251h16v-12.251l-8-7.059zM15.2 26.196v-6.275h-4l5.6-10.98v6.275h4l-5.6 10.98z"></path>
</symbol>
<symbol id="icon-resitential" viewBox="0 0 32 32">
<path fill="#0cabc7" style="fill: var(--color3, #0cabc7)" d="M12.8 28.571v-8.874h6.4v8.874h8v-11.832h4.8l-16-13.311-16 13.311h4.8v11.832h8z"></path>
</symbol>
<symbol id="icon-save-progress" viewBox="0 0 32 32">
<path fill="#0cabc7" style="fill: var(--color3, #0cabc7)" d="M21.333 10.667h-17.778v-7.111h17.778zM16 28.445c-1.414 0-2.771-0.562-3.771-1.562s-1.562-2.357-1.562-3.771c0-1.415 0.562-2.771 1.562-3.771s2.357-1.562 3.771-1.562c1.414 0 2.771 0.562 3.771 1.562s1.562 2.357 1.562 3.771c0 1.414-0.562 2.771-1.562 3.771s-2.357 1.562-3.771 1.562zM24.889 0h-21.333c-1.973 0-3.556 1.6-3.556 3.556v24.889c0 0.943 0.375 1.847 1.041 2.514s1.571 1.041 2.514 1.041h24.889c0.943 0 1.847-0.375 2.514-1.041s1.041-1.571 1.041-2.514v-21.333l-7.111-7.111z"></path>
</symbol>
<symbol id="icon-service-request" viewBox="0 0 32 32">
<path fill="#e31937" style="fill: var(--color5, #e31937)" d="M11.2 32c-0.88 0-1.6-0.72-1.6-1.6v-4.8h-6.4c-1.76 0-3.2-1.424-3.2-3.2v-19.2c0-1.776 1.44-3.2 3.2-3.2h25.6c1.776 0 3.2 1.44 3.2 3.2v19.2c0 1.776-1.424 3.2-3.2 3.2h-9.76l-5.92 5.936c-0.32 0.304-0.72 0.464-1.12 0.464h-0.8zM12.8 22.4v4.928l4.928-4.928h11.072v-19.2h-25.6v19.2h9.6zM22.144 9.92l-1.616 1.616-3.312-3.248 1.616-1.632c0.32-0.336 0.864-0.352 1.248 0l2.064 2c0.336 0.336 0.352 0.88 0 1.264zM9.6 15.856l6.672-6.704 3.312 3.328-6.656 6.72h-3.328v-3.344z"></path>
</symbol>
<symbol id="icon-service-upgrade" viewBox="0 0 32 32">
<path fill="#0cabc7" style="fill: var(--color3, #0cabc7)" d="M23.684 0c2.905 0.96 4.842 3.68 4.842 6.72 0 3.2-1.937 5.92-4.842 6.88v17.6c0 0.48-0.323 0.8-0.807 0.8h-3.228c-0.484 0-0.807-0.32-0.807-0.96v-17.6c-2.905-0.96-4.842-3.68-4.842-6.72s1.937-5.76 4.842-6.72v5.92h4.842v-5.92zM42.407 17.6l2.26 2.256-10.54 10.544-5.601-5.6 2.26-2.256 3.341 3.328 8.28-8.272z"></path>
</symbol>
<symbol id="icon-succesfuly-submitted" viewBox="0 0 32 32">
<path fill="#0cabc7" style="fill: var(--color3, #0cabc7)" d="M12.8 24l-8-8 2.256-2.272 5.744 5.744 12.144-12.144 2.256 2.272zM16 0c-2.101 0-4.182 0.414-6.123 1.218s-3.705 1.983-5.191 3.468c-3.001 3.001-4.686 7.070-4.686 11.314s1.686 8.313 4.686 11.314c1.486 1.486 3.25 2.664 5.191 3.468s4.022 1.218 6.123 1.218c4.243 0 8.313-1.686 11.314-4.686s4.686-7.070 4.686-11.314c0-2.101-0.414-4.182-1.218-6.123s-1.983-3.705-3.468-5.191c-1.486-1.486-3.25-2.664-5.191-3.468s-4.022-1.218-6.123-1.218z"></path>
</symbol>
<symbol id="icon-support" viewBox="0 0 32 32">
<path fill="#e31937" style="fill: var(--color5, #e31937)" d="M26.752 20.229c0.56-1.302 0.864-2.697 0.864-4.229 0-1.103-0.176-2.16-0.48-3.141-1.040 0.23-2.128 0.352-3.264 0.352-4.896 0-9.232-2.314-11.872-5.884-1.424 3.31-4.144 6.007-7.568 7.478-0.064 0.383-0.064 0.797-0.064 1.195 0 2.954 1.226 5.788 3.407 7.877s5.14 3.263 8.225 3.263c1.68 0 3.296-0.352 4.752-0.981 0.912 1.67 1.328 2.498 1.296 2.498-2.624 0.843-4.656 1.256-6.048 1.256-3.872 0-7.568-1.456-10.288-4.076-1.664-1.594-2.896-3.54-3.584-5.654h-2.128v-6.972h1.744c1.344-6.344 7.216-11.124 14.256-11.124 3.84 0 7.536 1.456 10.272 4.076 2.032 1.931 3.392 4.398 3.952 7.048h1.776v6.972h-0.096l-5.696 5.011-8.48-0.919v-2.559h7.728l1.296-1.486zM11.632 15.648c0.48 0 0.944 0.184 1.28 0.521 0.336 0.322 0.528 0.766 0.528 1.226s-0.192 0.904-0.528 1.226c-0.336 0.322-0.8 0.506-1.28 0.506-1.008 0-1.824-0.766-1.824-1.731s0.816-1.747 1.824-1.747zM20.352 15.648c1.008 0 1.808 0.781 1.808 1.747s-0.8 1.731-1.808 1.731c-1.008 0-1.824-0.766-1.824-1.731 0-0.463 0.192-0.908 0.534-1.235s0.806-0.512 1.29-0.512z"></path>
</symbol>
<symbol id="icon-temporary-service" viewBox="0 0 32 32">
<path fill="#0cabc7" style="fill: var(--color3, #0cabc7)" d="M12.413 7.111c0-0.471 0.184-0.924 0.512-1.257s0.773-0.521 1.237-0.521c0.464 0 0.909 0.187 1.237 0.521s0.512 0.786 0.512 1.257v7.947l2.117 0.231 8.643 3.893c0.927 0.427 1.487 1.369 1.487 2.4v7.751c-0.052 1.458-1.19 2.613-2.625 2.667h-11.373c-0.665 0-1.295-0.267-1.75-0.764l-8.573-7.467 1.295-1.369c0.332-0.373 0.805-0.569 1.295-0.569h0.385l5.599 3.058v-17.778zM14.163 0c1.856 0 3.636 0.749 4.949 2.083s2.050 3.142 2.050 5.028c0 2.667-1.4 4.924-3.499 6.151v-2.169c1.067-0.978 1.75-2.4 1.75-3.982 0-1.415-0.553-2.771-1.537-3.771s-2.319-1.562-3.712-1.562c-1.392 0-2.727 0.562-3.712 1.562s-1.537 2.357-1.537 3.771c0 1.582 0.682 3.004 1.75 3.982v2.169c-2.1-1.227-3.499-3.484-3.499-6.151 0-1.886 0.737-3.695 2.050-5.028s3.093-2.083 4.949-2.083z"></path>
</symbol>
<symbol id="icon-to-the-top" viewBox="0 0 32 32">
<path fill="#0cabc7" style="fill: var(--color3, #0cabc7)" d="M18.020 32h-4.040v-24.242l-11.111 11.111-2.869-2.869 16-16 16 16-2.869 2.869-11.111-11.111v24.242z"></path>
</symbol>
<symbol id="icon-twitter" viewBox="0 0 32 32">
<path fill="#fff" style="fill: var(--color2, #fff)" d="M31.573 5.439c-1.162 0.557-2.415 0.923-3.713 1.098 1.328-0.844 2.354-2.181 2.837-3.789-1.253 0.796-2.641 1.353-4.105 1.672-1.192-1.369-2.867-2.165-4.769-2.165-3.547 0-6.444 3.057-6.444 6.829 0 0.541 0.060 1.067 0.166 1.56-5.373-0.287-10.157-3.009-13.342-7.132-0.558 1.003-0.875 2.181-0.875 3.423 0 2.372 1.132 4.473 2.883 5.667-1.072 0-2.068-0.318-2.943-0.796 0 0 0 0 0 0.048 0 3.311 2.234 6.081 5.192 6.702-0.543 0.159-1.117 0.239-1.705 0.239-0.407 0-0.815-0.048-1.207-0.127 0.815 2.69 3.184 4.696 6.037 4.744-2.204 1.847-4.996 2.929-8.044 2.929-0.513 0-1.026-0.032-1.539-0.096 2.868 1.942 6.278 3.072 9.931 3.072 11.893 0 18.428-10.411 18.428-19.438 0-0.302 0-0.589-0.015-0.891 1.268-0.955 2.354-2.165 3.23-3.55z"></path>
</symbol>
<symbol id="icon-user" viewBox="0 0 32 32">
<path fill="#4c4d4f" style="fill: var(--color1, #4c4d4f)" d="M16 26.944c-3.8 0-7.159-1.946-9.12-4.864 0.046-3.040 6.080-4.712 9.12-4.712s9.074 1.672 9.12 4.712c-1.961 2.918-5.32 4.864-9.12 4.864zM16 5.36c1.209 0 2.369 0.48 3.224 1.336s1.336 2.015 1.336 3.224-0.48 2.369-1.336 3.224c-0.855 0.855-2.015 1.336-3.224 1.336s-2.369-0.48-3.224-1.336-1.336-2.015-1.336-3.224c0-1.209 0.48-2.369 1.336-3.224s2.015-1.336 3.224-1.336zM16 0.8c-1.996 0-3.973 0.393-5.817 1.157s-3.52 1.883-4.931 3.295c-2.851 2.851-4.452 6.717-4.452 10.748s1.601 7.897 4.452 10.748c1.411 1.412 3.087 2.531 4.931 3.295s3.821 1.157 5.817 1.157c4.031 0 7.897-1.601 10.748-4.452s4.452-6.717 4.452-10.748c0-8.406-6.84-15.2-15.2-15.2z"></path>
</symbol>
<symbol id="icon-user-blue" viewBox="0 0 32 32">
<path fill="#0cabc7" style="fill: var(--color3, #0cabc7)" d="M16 0c2.122 0 4.157 0.843 5.657 2.343s2.343 3.535 2.343 5.657c0 2.122-0.843 4.157-2.343 5.657s-3.535 2.343-5.657 2.343c-2.122 0-4.157-0.843-5.657-2.343s-2.343-3.535-2.343-5.657c0-2.122 0.843-4.157 2.343-5.657s3.535-2.343 5.657-2.343zM16 20c8.84 0 16 3.58 16 8v4h-32v-4c0-4.42 7.16-8 16-8z"></path>
</symbol>
<symbol id="icon-youtube" viewBox="0 0 32 32">
<path fill="#fff" style="fill: var(--color2, #fff)" d="M13.452 20.38l7.821-4.613-7.821-4.613v9.226zM30.871 8.34c0.196 0.723 0.331 1.691 0.422 2.922 0.105 1.23 0.151 2.291 0.151 3.214l0.090 1.292c0 3.368-0.241 5.843-0.663 7.427-0.377 1.384-1.251 2.276-2.607 2.66-0.708 0.2-2.004 0.338-3.993 0.431-1.959 0.108-3.752 0.154-5.41 0.154l-2.396 0.092c-6.314 0-10.247-0.246-11.799-0.677-1.356-0.384-2.23-1.276-2.607-2.66-0.196-0.723-0.332-1.691-0.422-2.921-0.105-1.23-0.151-2.291-0.151-3.214l-0.090-1.292c0-3.367 0.241-5.843 0.663-7.427 0.377-1.384 1.251-2.276 2.607-2.66 0.708-0.2 2.004-0.338 3.993-0.431 1.959-0.108 3.752-0.154 5.41-0.154l2.396-0.092c6.314 0 10.247 0.246 11.799 0.677 1.356 0.384 2.23 1.276 2.607 2.66z"></path>
</symbol>
</defs>
</svg>
